<svg xmlns="http://www.w3.org/2000/svg" xmlns:xlink="http://www.w3.org/1999/xlink" width="500" zoomAndPan="magnify" viewBox="0 0 375 374.999991" height="500" preserveAspectRatio="xMidYMid meet" version="1.0"><defs><g/></defs><g fill="#1d4ed8" fill-opacity="1"><g transform="translate(55.548164, 337.117935)"><g><path d="M 264.640625 -211 C 264.640625 -192.976562 260.5 -176.503906 252.21875 -161.578125 C 243.945312 -146.648438 231.238281 -134.601562 214.09375 -125.4375 C 196.957031 -116.28125 175.679688 -111.703125 150.265625 -111.703125 L 103.28125 -111.703125 L 103.28125 0 L 27.484375 0 L 27.484375 -311.1875 L 150.265625 -311.1875 C 175.097656 -311.1875 196.082031 -306.898438 213.21875 -298.328125 C 230.351562 -289.753906 243.207031 -277.929688 251.78125 -262.859375 C 260.351562 -247.796875 264.640625 -230.507812 264.640625 -211 Z M 144.515625 -172 C 158.992188 -172 169.78125 -175.394531 176.875 -182.1875 C 183.96875 -188.988281 187.515625 -198.59375 187.515625 -211 C 187.515625 -223.414062 183.96875 -233.019531 176.875 -239.8125 C 169.78125 -246.613281 158.992188 -250.015625 144.515625 -250.015625 L 103.28125 -250.015625 L 103.28125 -172 Z M 144.515625 -172 "/></g></g></g></svg>